<?xml version="1.0" encoding="utf-8"?>
<!-- Generator: Adobe Illustrator 26.3.1, SVG Export Plug-In . SVG Version: 6.00 Build 0)  -->
<svg version="1.1" id="Capa_1" xmlns="http://www.w3.org/2000/svg" xmlns:xlink="http://www.w3.org/1999/xlink" x="0px" y="0px"
	 viewBox="0 0 841.89 595.28" style="enable-background:new 0 0 841.89 595.28;" xml:space="preserve">
<style type="text/css">
	.st0{fill:#0E66B0;stroke:#0E66B0;stroke-width:2;stroke-miterlimit:10;enable-background:new    ;}
	.st1{fill:#0E66B0;enable-background:new    ;}
	.st2{fill:#0E66B0;}
	.st3{fill:#0E66B0;stroke:#0E66B0;stroke-width:2;stroke-miterlimit:10;}
	.st4{enable-background:new    ;}
	.st5{fill:#AB1B18;stroke:#AB1B18;stroke-width:0.75;stroke-miterlimit:10;}
</style>
<path class="st0" d="M560.81,315.75c2.73,0.38,5.48-0.99,8.52-2.32c4.12-1.79,7.49-4.76,11.69-6.31c2.56-0.95,3.61-3.71,5.69-5.32
	c0,0,4.33-3.78,6.42-7.54c0.19-0.34,0.52-0.99,0.47-1.81c-0.09-1.38-1.23-2.28-1.61-2.67c-2.57-2.64,1.23-10.94,1.46-11.42
	c0,0,2.99-5.9,13.7-11.92c1.63-0.92,2.58-0.12,2.7,2.09c0.24,4.41,0.5,4.59,4.88,3.88c5.6-0.91,11.17-2.01,16.89-2.02
	c3.79-0.01,6.35,2.85,6.4,6.77c0.06,4.52-2.2,7.46-5.42,10.16c-3.54,2.98-6.94,6.12-9.53,10.04c-1.32,1.99-2.34,4.08-3.21,6.28
	c-1.1,2.78-0.44,5.3,1.51,7.26c1.87,1.88,4.39,1.89,6.88,1.19c3.86-1.08,7.12-3.21,10.15-5.77c0.73-0.62,1.41-1.34,2.23-1.83
	c3.6-2.14,5.75-5.32,6.67-9.32c1.28-5.56,4.83-9.69,8.71-13.45c8.1-7.84,17.82-12.74,28.93-14.66c3.06-0.53,6.3-0.56,9.17,0.83
	c2.73,1.32,2.96,3.14,1.04,5.48c-1,1.21-1.73,2.46-0.13,3.56c3.07,2.1,3.98,5.04,3.44,8.46c-0.72,4.59-1.07,9.34-3.84,13.34
	c-0.79,1.14-0.93,2.43-1.15,3.72c-0.29,1.76,0.55,2.54,2.27,2.77c3.5,0.47,5.96-1.59,8.56-3.33c1.16-0.77,2.21-1.72,3.37-2.48
	c1.65-1.08,2.2-0.16,2.27,1.4c0.04,1-0.32,1.88-0.99,2.64c-5.33,6.06-11.71,10.08-20.05,10.2c-1.74,0.02-3.19,0.59-4.54,1.72
	c-2.48,2.07-4.77,4.81-7.65,5.85c-3.66,1.32-6.47,4.67-10.86,4.33c-2-0.16-3.97,0.72-6.16,0.16c-7.31-1.85-10.87-6.81-12.02-13.86
	c-0.3-1.81-1.37-3.33-1.37-5.27c0-1.28-1.12-0.55-1.77-0.18c-3.01,1.69-5.19,4.37-7.8,6.54c-5.39,4.5-10.47,9.42-17.12,12.17
	c-2.53,1.05-5.06,1.35-7.67,0.49c-1.92-0.63-3.42-1.74-3.8-3.92c-0.1-0.6-0.17-1.33-0.54-1.74c-2.53-2.81-1.6-5.81-1.17-9.11
	c0.59-4.47,3.39-7.56,5.32-11.22c1.81-3.42,5.07-5.71,6.86-9.14c0.44-0.84,1.31-1.56,0.73-2.59c-0.61-1.09-1.81-1.13-2.81-0.93
	c-3.42,0.69-6.78,1.96-10.21,2.21c-5.62,0.42-7.52,5.17-10.7,8.39c-2.98,3.03-5.39,6.76-8.55,9.44c-5.26,4.46-9.87,9.68-15.99,13.28
	c-3.89,2.29-7.94,4.04-12.04,5.61c-6.33,2.42-15.02,2.75-20.39-4.04c-1.51-1.9-2.92-3.92-3.03-6.27c-0.11-2.45-1.67-4.47-1.4-7.09
	c0.17-1.64-1.79-1.08-2.9-0.7c-2.71,0.95-4.56,3.13-6.76,4.83c-5.86,4.51-11.81,8.9-18.56,12.05c-1.44,0.68-2.95,1.09-4.51,1.34
	c-5.38,0.87-8.71-2.29-7.94-7.74c0.78-5.58,3.15-10.55,6.72-14.86c3.19-3.85,5.65-8.19,8.57-12.22c0.47-0.65,0.85-1.46,0.15-2.15
	c-0.83-0.82-1.8-0.51-2.65,0.04c-4.18,2.69-8,5.87-11.85,8.98c-6.03,4.88-11.46,10.42-16.53,16.27c-2.41,2.79-4.83,5.44-7.85,7.58
	c-2.5,1.77-3.63,1.64-4.74-1.3c-1.3-3.44-2.32-6.96-2.4-10.69c-0.02-0.79,0.01-1.59-0.16-2.35c-0.34-1.53-1.24-1.83-2.47-0.87
	c-1.23,0.97-2.49,1.93-3.6,3.03c-6.71,6.65-14.53,11.75-23.17,15.34c-4.98,2.07-10.53,3-15.86,0.88c-4.5-1.79-10.57-9.46-9.84-15.44
	c0.25-2.08-1.04-4.17-1.97-6.13c-0.38-0.8-1.11-0.79-1.78-0.33c-0.71,0.49-1.55,0.93-2.05,1.6c-4.22,5.65-10.07,9.6-15.11,14.39
	c-2.86,2.72-6.3,4.86-10.1,6.42c-2.95,1.21-5.6,0.99-8.36-0.09c-2.01-0.79-3.18-2.33-3.68-4.45c-1.46-6.21,1.13-11.46,3.8-16.73
	c2.11-4.16,4.99-7.77,7.75-11.48c0.81-1.08,1.64-2.4,0.37-3.5c-1.25-1.08-2.44-0.03-3.47,0.8c-8.62,7.02-16.42,14.86-23.08,23.75
	c-2.35,3.13-5.04,5.76-8,8.21c-2.24,1.85-5.63,1.07-7.26-1.3c-2.12-3.09-2.78-6.53-3.06-10.13c-0.1-1.36-0.35-2.62-1.85-3.18
	c-1.53-0.57-2.17,0.67-3.06,1.46c-5.48,4.86-11.01,9.62-17.3,13.49c-2.6,1.6-5.27,2.97-7.94,4.39c-1.61,0.86-3.26,1.21-5.05,1.11
	c-2.91-0.16-4.78-1.79-5.08-4.67c-0.33-3.14-0.33-6.29,0.93-9.3c1.25-2.98,2.43-5.99,3.62-9c0.37-0.94,1.11-1.98-0.2-2.76
	c-1.14-0.67-2.15-0.3-3.08,0.56c-3.21,2.96-6.57,5.69-10.15,8.23c-4.38,3.11-8.17,7.04-12.55,10.15c-3.55,2.52-8.64,3.95-11.83-0.65
	c-1.72-2.48-4.13-4.46-5.46-7.3c-2.67-5.7-2.41-11.19,1.07-16.43c4.8-7.23,11.12-12.8,18.65-17.1c4.85-2.77,9.57-5.85,14.83-7.75
	c7.35-2.66,14.58-5.94,22.74-5.38c2.43,0.17,4.44,0.91,6.03,2.68c2.29,2.56,2.11,4.04-0.82,5.86c-1.38,0.86-2.11,1.9-0.93,3.13
	c4.56,4.78,1.08,8.57-1.43,12.42c-2.19,3.36-5.18,6.15-6.98,9.8c-0.58,1.17-1.3,2.29-1.74,3.52c-0.76,2.11-1.95,4.41,0.01,6.38
	c2.02,2.04,4.61,2.51,7.47,2.03c4.78-0.8,8.3-3.95,12.21-6.35c1.86-1.14,3.59-2.48,5.44-3.63c4.28-2.67,5.56-7.4,8.03-11.34
	c3.47-5.54,6.7-11.31,11.99-15.47c2.86-2.24,9.44-2.75,12.44-0.82c0.68,0.44,1.53,1.02-0.08,1.42c-0.4,0.1-0.45,0.52-0.4,0.87
	c0.37,2.6-1.34,4.29-2.82,5.95c-3.85,4.29-7.85,8.44-11.78,12.65c-1.31,1.41-2.61,2.83-3.22,4.73c-0.37,1.16-1.73,2.32-0.14,3.48
	c1.52,1.11,3.25,1.44,4.88,0.29c0.99-0.69,1.92-1.56,2.65-2.52c3.79-5.03,8.16-9.42,12.97-13.52c8.33-7.1,17.31-13.21,26.45-19.15
	c0.73-0.47,1.51-0.9,2.32-1.21c2.68-1.04,3.9-0.41,4.68,2.33c0.29,1.01,0.55,2.03,0.87,3.02c1.67,5.16,0.86,7.69-3.6,10.69
	c-2.55,1.72-3.52,4.7-5.69,6.76c-3.63,3.44-6.58,7.45-8.52,12.14c-1.27,3.06-0.88,5.47,1.24,7.11c1.77,1.36,3.52,1.62,5.58,0.49
	c4.99-2.75,9.41-6.23,13.83-9.8c4-3.24,7.11-6.88,9.65-11.44c2.43-4.37,6.81-7.36,10.86-10.45c5.11-3.88,10.75-6.92,16.4-9.77
	c4.24-2.14,8.82-4.07,13.91-4.2c5.51-0.14,7.55,4.95,5.49,9.72c-2.65,6.14-6.39,11.55-12.27,15.19c-2.94,1.82-4.46,1.51-6.11-1.54
	c-2.26-4.18-2.83-4.2-6.59-1.23c-3.56,2.81-7.16,5.58-10.82,8.27c-3.38,2.5-6.37,5.65-5.53,10.52c0.8,4.65,5.48,8.32,10.45,8.8
	c7.61,0.74,14.2-2,20.66-5.47c5.48-2.95,10.14-7.1,15.38-10.39c1.27-0.8,2.24-1.94,2.75-3.41c3.2-9.2,8.76-17.04,14.22-24.96
	c3.22-4.68,6.66-9.18,10.17-13.64c1.79-2.28,3.85-4.29,5.77-6.42c1.57-1.74,3.17-3.47,4.76-5.18c7.01-7.54,14.29-14.8,22.69-20.84
	c2.62-1.89,5.25-2.6,8.32-1.12c1.45,0.7,1.97,1.68,1.53,3.15c-0.29,1-0.6,2.05-1.15,2.91c-2.65,4.16-5.3,8.34-8.4,12.2
	c-3.44,4.28-6.64,8.76-10.27,12.87c-9.53,10.79-18.86,21.77-29.13,31.9c-3.58,3.54-6.77,7.48-10.22,11.15
	c-2.4,2.57-1.52,5.68-1.2,8.46c0.22,1.88,2.13,1,3.05,0.05c2.63-2.71,5.59-5.01,8.51-7.37c8.41-6.8,16.69-13.78,25.68-19.81
	c2.16-1.45,4.59-2.54,6.99-3.57c2.61-1.11,5.34,0.25,7.53,3.3c1.72,2.39,0.59,4.08-0.68,6.34c-2.52,4.5-6.09,8.06-9.41,11.85
	c-1.92,2.19-3.36,4.62-4.93,7.01c-1.48,2.25-1.67,4.62-0.42,6.94c0.92,1.69,4,1.99,6.74,1.32c2.38-0.58,4.23-2.06,6.3-3.14
	c3.08-1.62,6.06-3.44,9.04-5.25c2.44-1.48,3.87-3.64,4.53-6.46c0.37-1.59,1.07-3.19,1.98-4.54c1.56-2.31,3.15-4.55,4.16-7.2
	c0.85-2.25,3.19-3.37,4.74-5.13c5.35-6.04,11.99-10.47,19.77-12.67c4.77-1.35,9.84-1.53,14.8-0.73c3.93,0.64,6.02,4.59,4.96,8.65
	c-1.4,5.37-5.46,8.59-9.43,11.87c-6.75,5.58-14.92,8.58-22.71,12.26c-0.93,0.44-2.04,0.84-3.01,0.75c-2.27-0.21-2.84,1-3.13,2.88
	c-1.15,7.57,2.3,11.75,9.96,11.96C558.43,315.77,559.31,315.75,560.81,315.75z M260.49,309.28c0.24,2.41-0.26,4.75,1.98,5.79
	c2.2,1.02,4.52,1.09,6.74-0.37c8.26-5.46,15.88-11.68,22.95-18.62c4.15-4.07,8.35-8.09,12.24-12.41c0.53-0.59,1.1-1.23,0.57-2.09
	c-0.47-0.76-1.28-0.93-2.08-0.81c-0.94,0.15-1.87,0.43-2.79,0.68c-4.38,1.2-8.53,3.02-12.75,4.67c-6.84,2.67-13.45,5.79-19.2,10.44
	C263.96,299.96,260.78,304,260.49,309.28z M659.84,318.57c1.88-1.86,3.92-1.9,6.06-1.51c0.82,0.15,1.48-0.34,2.2-0.67
	c2.57-1.16,4.51-3.89,6.99-4.41c3.42-0.72,2.02-2.43,1.83-4.09c-0.08-0.69-0.32-1.36-0.53-2.02c-1.23-3.9-0.9-7.74,0.41-11.55
	c1.1-3.21,4-5.54,4.32-9.15c0.08-0.85,0.63-1.68-0.18-2.41c-0.66-0.6-1.46-0.48-2.22-0.19c-0.57,0.22-1.11,0.5-1.66,0.78
	c-4.81,2.45-9.39,5.24-13.37,8.91c-5.55,5.11-8.62,11.33-8.07,19.04c0.12,1.71,0.63,3.42,2.38,4.07
	C659.47,315.92,660.09,316.72,659.84,318.57z M574.48,276.48c0.05-2.22-1.62-3.6-3.63-2.88c-9.42,3.37-16.58,9.35-20.88,18.51
	c-0.51,1.09-1.24,2.31-0.21,3.41c1,1.06,2.17,0.21,3.15-0.19c8.05-3.25,14.97-8.04,20.26-15.02
	C574.04,279.16,574.26,277.77,574.48,276.48z"/>
<path class="st1" d="M209.63,255.96c2.27,0,4.56-0.17,6.81,0.04c6.03,0.56,10.85-2.02,15.32-5.62c0.61-0.49,1.23-0.97,1.88-1.41
	c4.97-3.39,7.15-9.59,5.65-15.48c-0.94-3.74-4.01-5.48-6.92-6.65c-6.45-2.61-13.08-3.12-20.19-1.71c-5.94,1.17-10.79,4.21-16,6.64
	c-5.08,2.37-8.76,6.8-13,10.39c-3.37,2.85-6.19,6.26-8.87,9.68c-3.49,4.45-5.89,9.67-8.31,14.8c-3.16,6.69-4.96,13.76-5.5,21.15
	c-0.06,0.78-0.35,1.63-0.15,2.34c1.51,5.43,0.5,10.97,0.82,16.44c0.53,9.28-5.06,14.87-14.37,15.11c-3.62,0.09-6.69-0.73-9.43-2.99
	c-0.34-0.28-0.82-0.5-0.97-0.86c-1.49-3.72-3.46-7.2-3.9-11.36c-0.72-6.91-1.1-13.81,0.95-20.48c2.33-7.57,3.89-15.6,9.96-21.47
	c0.25-0.24,0.53-0.5,0.64-0.81c2.65-7.5,8.81-12.27,13.83-17.94c3.97-4.47,8.46-8.32,13.2-11.88c3.82-2.87,7.87-5.42,11.87-8.04
	c4.16-2.74,8.53-5.14,13.18-6.89c6.88-2.57,13.9-4.51,21.27-5.34c6.73-0.75,13.23-0.28,19.62,1.76c7.27,2.33,12.94,6.57,16.33,13.71
	c1.29,2.71,2.32,5.4,2.9,8.34c0.67,3.37-0.19,6.41-1.68,9.34c-2.7,5.31-6.5,9.66-11.07,13.52c-3.32,2.8-2.86,4.35-0.65,7.05
	c4.1,5,7.23,10.56,6.45,17.46c-0.25,2.26-0.39,4.55-2.26,6.24c-0.35,0.32-0.67,0.93-0.64,1.37c0.31,4.41-2.84,7.03-4.96,10.28
	c-1.51,2.33-3.81,3.83-5.28,6.27c-1.37,2.29-4.16,3.92-6.61,5.34c-3.98,2.3-7.99,4.52-12.78,5.07c-3.25,0.37-6.32,1.87-9.66,2.16
	c-9.53,0.82-18.81-0.3-27.03-5.3c-4.64-2.83-8.78-6.76-8.63-13.13c0.11-4.8,4.6-12.26,11.93-10.05c1.29,0.39,2.51,0.84,3.31,1.96
	c3.4,4.71,8.01,8.05,12.99,10.72c5.11,2.73,10.58,2.38,15.89,0.08c5.65-2.45,9.68-6.67,11.99-12.24c2.69-6.48,1.54-13.97-5.75-17.8
	c-3.33-1.75-6.86-3.01-10.73-2.99c-4.71,0.02-9.43-0.09-14.14-0.11c-1.31-0.01-2.37-0.46-3.26-1.4c-3.03-3.2-3.34-7.17-1.67-10.75
	c1.34-2.89,4.27-4.66,7.9-4.54C203.16,256.04,206.4,255.95,209.63,255.96z"/>
<polygon class="st2" points="138.38,271.55 146.99,257.98 149.29,260.36 "/>
<path class="st2" d="M249.22,285.74c0,0-5.85,36.7-46.76,35.99"/>
<path class="st2" d="M161.13,303.74c0,0-1.63-26.22,2.83-32.19l-8.84,6.28v18.79L161.13,303.74z"/>
<path class="st2" d="M133.46,285.96c0,0,2.84-19.92,21.02-36.59l0.64,11.74L133.46,285.96z"/>
<path class="st2" d="M132.76,308.01l28.43-1.46c0.07,0.71,0.74,8.57-4.58,12.59c-3.18,2.41-7.09,2.39-9.71,2.37
	c-2.13-0.01-4.84-0.02-7.44-1.45C133.58,316.86,132.84,309.04,132.76,308.01z"/>
<path class="st2" d="M363.69,275.98c0.04,0.08,0.11,0.24,0.18,0.45c0.73,2.28-0.87,5.36-3.07,6.24c-0.41,0.17-0.71,0.27-1.01,0.15
	c-1.38-0.56-0.63-5.04-0.63-5.04C360.67,277.18,362.18,276.58,363.69,275.98z"/>
<path class="st2" d="M403.53,297.91c3.1-4.15,6.2-8.3,9.29-12.45v6.94C409.72,294.23,406.62,296.07,403.53,297.91z"/>
<path class="st2" d="M405.94,303.75l-0.97,0.72c0,0,1.73,12.06,3.88,11.65c2.16-0.41,1.68-10.77,1.68-10.77"/>
<path class="st2" d="M533.84,299.62c0,0,6.08-19.37,18.76-25.71l-5.39,13.55L533.84,299.62z"/>
<path class="st2" d="M534.29,298.31c0,0,3.33-11.07,10.24-17.95v4.36L534.29,298.31z"/>
<path class="st2" d="M533.2,308.35c0,0,0.78,13.48,6.21,15.78l2.87-4.24L533.2,308.35z"/>
<path class="st2" d="M576.49,308.35c11.28-8.84,14.84-12.38,15.3-13.62c0.04-0.12,0.24-0.7,0.49-0.69c0.47,0.01,0.8,2.09,1.01,3.8
	l-14.87,12.52L576.49,308.35z"/>
<path class="st2" d="M604.94,313.98c0,0-0.73,10.14,6.57,12.42s2.11-6.82,2.11-6.82L604.94,313.98z"/>
<path class="st3" d="M593.12,294.26"/>
<path class="st2" d="M657.11,313.98c0,0,5.82,5.91,16.21-2.28v4.34l-8.11,2.53h-5.38L657.11,313.98z"/>
<path class="st2" d="M676.18,310.31c0,0-15.84,8.67-19.06,3.68c-3.23-5,0,4.59,0,4.59l15.25,1.8l5.43-6.39L676.18,310.31z"/>
<path class="st2" d="M659.7,325.72c0,0,8.24,6.36,26.73-10.58l-23.54,8.54"/>
<g>
	<g>
		<path class="st2" d="M660.33,326.72c0.94-0.09,1.87-0.09,2.81,0.01c0-1.67,0-3.33,0-5c-0.21,0.02-0.43,0.03-0.64,0.03
			c-0.07,0-0.63-0.03-0.23,0.02c-0.17-0.02-0.34-0.06-0.5-0.1c0,0-0.74-0.24-0.37-0.08c-1-0.43-2.22-0.49-3.03,0.39
			c-0.7,0.77-1.05,2.11-0.39,3.03c2.44,3.4,7.1,2.3,10.54,1.34c3.21-0.89,6.59-1.88,8.48-4.85c-1.44-0.84-2.88-1.68-4.32-2.52
			c-0.06,0.13-0.53,0.79-0.21,0.45c-0.1,0.11-0.21,0.22-0.33,0.31c0.2-0.16,0.19-0.17-0.05-0.01c-1.13,0.66-1.63,2.29-0.9,3.42
			c0.74,1.14,2.21,1.6,3.42,0.9c1.01-0.59,1.9-1.47,2.38-2.54c0.54-1.19,0.38-2.75-0.9-3.42c-1.24-0.65-2.67-0.28-3.42,0.9
			c-0.07,0.12-0.15,0.24-0.24,0.36c0.17-0.23,0.17-0.23-0.02-0.02c-0.08,0.07-0.75,0.63-0.29,0.3c-0.47,0.34-0.98,0.61-1.51,0.85
			c0.51-0.23-0.34,0.12-0.43,0.16c-0.21,0.07-0.42,0.14-0.63,0.21c-0.61,0.2-1.22,0.37-1.84,0.55c-0.7,0.2-1.4,0.39-2.11,0.56
			c-0.27,0.06-0.53,0.12-0.8,0.17c-0.18,0.03-0.36,0.07-0.54,0.1c-0.31,0.05-0.36,0.06-0.14,0.02c-0.63,0.08-1.28,0.12-1.91,0.06
			c0.62,0.06-0.19-0.07-0.34-0.13c0.29,0.12,0.32,0.12,0.07-0.02c0.16,0.07,0.27,0.19,0.35,0.34c-1.14,1.14-2.28,2.28-3.42,3.42
			c1.38,0.58,2.75,0.95,4.27,0.82c1.3-0.11,2.56-1.07,2.5-2.5c-0.07-1.47-1.1-2.35-2.5-2.5c-0.94-0.1-1.87-0.1-2.81-0.01
			c-1.3,0.13-2.56,1.06-2.5,2.5C657.89,325.47,658.94,326.86,660.33,326.72L660.33,326.72z"/>
	</g>
</g>
<path class="st2" d="M258.88,327.46"/>
<polygon class="st2" points="258.29,322.97 253.48,316.98 252.03,314.47 255.85,315.33 259.17,322.35 "/>
<path class="st2" d="M656.58,311.7c0,0-0.16,8.63,19.59-1.4l2.33,0.26l-3.34,4.19l-11.01,1.44l-6.03,1.83l-1.54-2.9l-0.29-2.28
	L656.58,311.7z"/>
<g>
	<g class="st4">
		<path class="st5" d="M222.47,367.24c-0.43,1.49-1.24,3.72-1.71,4.69c-0.9,0.19-3.32,0.75-5.68,0.75c-7.42,0-11.2-4.94-11.2-10.37
			c0-6.33,4.81-10.71,11.76-10.71c2.67,0,4.84,0.56,5.87,0.71c0.12,1.4,0.34,3.26,0.59,4.81l-0.96,0.22c-0.62-2.08-1.37-3.35-2.95-4
			c-0.81-0.37-2.08-0.59-3.26-0.59c-5.12,0-7.82,3.79-7.82,8.91c0,5.99,3.1,9.84,8.13,9.84c3.17,0,4.72-1.46,6.3-4.56L222.47,367.24
			z"/>
		<path class="st5" d="M243.55,372.45c-0.4,0-0.75-0.03-1.15-0.06c-2.27-0.16-3.48-0.75-4.84-2.67c-1.15-1.58-2.27-3.54-3.26-5.12
			c-0.62-0.99-1.02-1.18-2.61-1.18h-1.09v4.87c0,2.64,0.34,2.79,2.82,3.04v0.87h-8.29v-0.87c2.58-0.28,2.79-0.4,2.79-3.04v-12.38
			c0-2.64-0.34-2.73-2.79-3.01v-0.87h7.91c2.27,0,3.79,0.28,4.97,1.06c1.27,0.81,2.11,2.2,2.11,4.1c0,2.67-1.71,4.34-4,5.34
			c0.56,0.96,1.89,3.04,2.82,4.44c1.15,1.64,1.74,2.42,2.45,3.2c0.84,0.9,1.55,1.24,2.27,1.43L243.55,372.45z M232.1,362.37
			c1.61,0,2.64-0.25,3.41-0.9c1.21-0.9,1.71-2.14,1.71-3.82c0-3.32-2.2-4.53-4.59-4.53c-0.9,0-1.43,0.12-1.65,0.31
			c-0.28,0.22-0.37,0.53-0.37,1.33v7.6H232.1z"/>
		<path class="st5" d="M260.22,367.27c-0.19,0.81-1.02,4-1.33,4.93H243.8v-0.87c2.89-0.22,3.1-0.5,3.1-3.04v-12.26
			c0-2.76-0.34-2.92-2.67-3.13v-0.87h9.5c2.92,0,4.13-0.03,4.5-0.06c0.03,0.78,0.16,3.1,0.28,4.75l-0.93,0.16
			c-0.28-1.06-0.59-1.71-0.93-2.36c-0.5-1.02-1.21-1.24-3.07-1.24h-2.95c-0.96,0-1.02,0.09-1.02,0.99v6.86h3.44
			c2.33,0,2.48-0.47,2.86-2.58h0.96v6.39h-0.96c-0.4-2.23-0.65-2.54-2.89-2.54h-3.41v6.18c0,2.17,0.68,2.36,2.23,2.39h2.89
			c1.89,0,2.2-0.28,2.89-1.09c0.59-0.65,1.24-1.92,1.68-2.85L260.22,367.27z"/>
		<path class="st5" d="M272.79,372.2v-0.87c2.02-0.25,2.27-0.56,1.83-1.74c-0.4-1.21-1.02-2.76-1.68-4.72h-6.7
			c-0.5,1.4-0.96,2.61-1.4,3.88c-0.68,2.02-0.25,2.27,2.3,2.58v0.87h-7.17v-0.87c1.96-0.25,2.45-0.47,3.54-3.26l6.42-16.29
			l0.99-0.19c1.96,5.31,4.1,11.17,6.05,16.54c0.99,2.7,1.27,2.95,3.48,3.2v0.87H272.79z M269.68,355.66
			c-0.99,2.67-2.05,5.49-2.98,7.95h5.8L269.68,355.66z"/>
		<path class="st5" d="M289.8,352.03c4.38,0,7.14,0.87,9.06,2.7c1.52,1.49,2.64,3.66,2.64,6.64c0,3.63-1.49,6.58-3.88,8.38
			c-2.36,1.77-5.37,2.45-9.19,2.45h-7.26v-0.87c2.67-0.25,2.79-0.47,2.79-3.01v-12.38c0-2.67-0.37-2.79-2.79-3.04v-0.87H289.8z
			 M286.66,368.08c0,2.33,0.99,2.98,3.32,2.98c5.59,0,8.44-3.82,8.44-9.25c0-3.38-1.15-5.96-3.6-7.45c-1.43-0.9-3.23-1.24-5.31-1.24
			c-1.4,0-2.14,0.19-2.45,0.43c-0.28,0.19-0.4,0.53-0.4,1.74V368.08z"/>
		<path class="st5" d="M314.82,351.6c5.31,0,10.06,4.07,10.06,10.24c0,6.67-4.53,10.83-10.24,10.83c-5.96,0-10.3-4.53-10.3-10.37
			C304.33,356.75,308.27,351.6,314.82,351.6z M314.2,352.74c-3.48,0-6.64,2.92-6.64,8.72c0,5.77,3.17,10.02,7.57,10.02
			c3.76,0,6.58-2.79,6.58-8.78C321.71,356.19,318.26,352.74,314.2,352.74z"/>
		<path class="st5" d="M346.07,372.45c-0.4,0-0.75-0.03-1.15-0.06c-2.27-0.16-3.48-0.75-4.84-2.67c-1.15-1.58-2.27-3.54-3.26-5.12
			c-0.62-0.99-1.02-1.18-2.61-1.18h-1.09v4.87c0,2.64,0.34,2.79,2.82,3.04v0.87h-8.29v-0.87c2.58-0.28,2.79-0.4,2.79-3.04v-12.38
			c0-2.64-0.34-2.73-2.79-3.01v-0.87h7.91c2.27,0,3.79,0.28,4.97,1.06c1.27,0.81,2.11,2.2,2.11,4.1c0,2.67-1.71,4.34-4,5.34
			c0.56,0.96,1.89,3.04,2.82,4.44c1.15,1.64,1.74,2.42,2.45,3.2c0.84,0.9,1.55,1.24,2.27,1.43L346.07,372.45z M334.62,362.37
			c1.61,0,2.64-0.25,3.41-0.9c1.21-0.9,1.71-2.14,1.71-3.82c0-3.32-2.2-4.53-4.59-4.53c-0.9,0-1.43,0.12-1.65,0.31
			c-0.28,0.22-0.37,0.53-0.37,1.33v7.6H334.62z"/>
		<path class="st5" d="M362.74,367.27c-0.19,0.81-1.02,4-1.33,4.93h-15.08v-0.87c2.89-0.22,3.1-0.5,3.1-3.04v-12.26
			c0-2.76-0.34-2.92-2.67-3.13v-0.87h9.5c2.92,0,4.13-0.03,4.5-0.06c0.03,0.78,0.16,3.1,0.28,4.75l-0.93,0.16
			c-0.28-1.06-0.59-1.71-0.93-2.36c-0.5-1.02-1.21-1.24-3.07-1.24h-2.95c-0.96,0-1.02,0.09-1.02,0.99v6.86h3.44
			c2.33,0,2.48-0.47,2.86-2.58h0.96v6.39h-0.96c-0.4-2.23-0.65-2.54-2.89-2.54h-3.41v6.18c0,2.17,0.68,2.36,2.23,2.39h2.89
			c1.89,0,2.2-0.28,2.89-1.09c0.59-0.65,1.24-1.92,1.68-2.85L362.74,367.27z"/>
		<path class="st5" d="M375.62,356.75c-0.53-2.05-1.4-4.07-4.31-4.07c-2.42,0-3.26,1.77-3.26,3.38c0,2.14,1.37,3.23,3.94,4.56
			c3.72,1.92,5.34,3.35,5.34,6.3c0,3.26-2.82,5.74-6.83,5.74c-1.86,0-3.48-0.53-4.75-1.02c-0.25-0.87-0.62-2.98-0.84-4.66l0.96-0.25
			c0.62,2.08,1.99,4.78,5.21,4.78c2.23,0,3.6-1.55,3.6-3.57c0-2.39-1.27-3.35-4-4.84c-3.26-1.77-5.09-3.26-5.09-6.15
			c0-2.76,2.3-5.37,6.39-5.37c1.74,0,3.44,0.47,4.1,0.59c0.12,1.12,0.25,2.36,0.5,4.38L375.62,356.75z"/>
		<path class="st5" d="M395.86,352.03c4.38,0,7.14,0.87,9.06,2.7c1.52,1.49,2.64,3.66,2.64,6.64c0,3.63-1.49,6.58-3.88,8.38
			c-2.36,1.77-5.37,2.45-9.19,2.45h-7.26v-0.87c2.67-0.25,2.79-0.47,2.79-3.01v-12.38c0-2.67-0.37-2.79-2.79-3.04v-0.87H395.86z
			 M392.73,368.08c0,2.33,0.99,2.98,3.32,2.98c5.59,0,8.44-3.82,8.44-9.25c0-3.38-1.15-5.96-3.6-7.45c-1.43-0.9-3.23-1.24-5.31-1.24
			c-1.4,0-2.14,0.19-2.45,0.43c-0.28,0.19-0.4,0.53-0.4,1.74V368.08z"/>
		<path class="st5" d="M426.46,367.27c-0.19,0.81-1.02,4-1.33,4.93h-15.08v-0.87c2.89-0.22,3.1-0.5,3.1-3.04v-12.26
			c0-2.76-0.34-2.92-2.67-3.13v-0.87h9.5c2.92,0,4.13-0.03,4.5-0.06c0.03,0.78,0.16,3.1,0.28,4.75l-0.93,0.16
			c-0.28-1.06-0.59-1.71-0.93-2.36c-0.5-1.02-1.21-1.24-3.07-1.24h-2.95c-0.96,0-1.02,0.09-1.02,0.99v6.86h3.44
			c2.33,0,2.48-0.47,2.86-2.58h0.96v6.39h-0.96c-0.4-2.23-0.65-2.54-2.89-2.54h-3.41v6.18c0,2.17,0.68,2.36,2.23,2.39h2.89
			c1.89,0,2.2-0.28,2.89-1.09c0.59-0.65,1.24-1.92,1.68-2.85L426.46,367.27z"/>
		<path class="st5" d="M451.33,367.05c-0.19,0.96-1.12,4.19-1.43,5.15h-14.43v-0.87c2.82-0.28,3.07-0.43,3.07-3.07v-12.32
			c0-2.64-0.31-2.79-2.79-3.04v-0.87h8.32v0.87c-2.48,0.25-2.82,0.37-2.82,3.04v12.63c0,1.89,0.25,2.33,2.02,2.36
			c0.03,0,2.27,0.03,2.45,0.03c1.58,0,2.05-0.19,2.76-0.96c0.78-0.81,1.43-2.05,1.89-3.2L451.33,367.05z"/>
		<path class="st5" d="M463.78,372.2v-0.87c2.02-0.25,2.27-0.56,1.83-1.74c-0.4-1.21-1.02-2.76-1.68-4.72h-6.7
			c-0.5,1.4-0.96,2.61-1.4,3.88c-0.68,2.02-0.25,2.27,2.3,2.58v0.87h-7.17v-0.87c1.96-0.25,2.45-0.47,3.54-3.26l6.42-16.29
			l0.99-0.19c1.96,5.31,4.1,11.17,6.05,16.54c0.99,2.7,1.27,2.95,3.48,3.2v0.87H463.78z M460.67,355.66
			c-0.99,2.67-2.05,5.49-2.98,7.95h5.8L460.67,355.66z"/>
		<path class="st5" d="M492.89,356.87c-0.28-0.87-0.53-1.61-0.96-2.3c-0.59-1.05-1.05-1.3-2.79-1.3h-3.32
			c-0.9,0-0.99,0.09-0.99,0.99v7.17h3.85c2.23,0,2.39-0.37,2.86-2.54h0.93v6.49h-0.96c-0.4-2.17-0.62-2.67-2.82-2.67h-3.85v5.56
			c0,2.7,0.31,2.82,3.13,3.07v0.87h-8.63v-0.87c2.51-0.19,2.79-0.4,2.79-3.07v-12.29c0-2.7-0.31-2.82-2.79-3.07v-0.87h9.84
			c2.79,0,3.85-0.03,4.38-0.06c0.03,1.12,0.16,3.29,0.31,4.78L492.89,356.87z"/>
		<path class="st5" d="M517.5,352.9c-1.96,0.12-2.67,0.62-2.73,2.05c-0.03,0.71-0.09,2.02-0.09,4.87v3.35
			c0,3.17-0.37,5.59-2.17,7.48c-1.46,1.52-3.57,1.99-5.71,1.99c-1.8,0-3.72-0.37-5.09-1.43c-1.86-1.43-2.76-3.57-2.76-7.2v-7.91
			c0-2.79-0.25-2.98-2.73-3.2v-0.87h8.16v0.87c-2.48,0.16-2.73,0.4-2.73,3.2v7.76c0,4.53,2.14,7.01,5.87,7.01
			c4.41,0,5.8-2.73,5.8-7.88v-3.17c0-2.86-0.09-4.03-0.16-4.87c-0.09-1.4-0.81-1.92-3.1-2.05v-0.87h7.45V352.9z"/>
		<path class="st5" d="M539.45,363.73c-1.92,0.25-2.05,0.43-2.05,2.27v2.61c0,1.09,0.03,2.11,0.19,2.95
			c-1.92,0.43-4.44,1.12-7.04,1.12c-7.04,0-11.33-4.38-11.33-10.61c0-6.55,5.34-10.46,11.55-10.46c3.17,0,5.49,0.62,6.46,0.78
			c0.06,1.15,0.22,3.04,0.47,5l-0.93,0.19c-0.74-2.64-1.64-3.75-3.6-4.41c-0.71-0.25-1.99-0.4-2.89-0.4c-4.75,0-7.82,3.26-7.82,8.94
			c0,4.93,2.54,9.84,8.57,9.84c1.05,0,2.02-0.22,2.64-0.53c0.65-0.37,1.06-0.71,1.06-1.99v-2.55c0-2.27-0.25-2.51-3.23-2.73v-0.9
			h7.98V363.73z"/>
		<path class="st5" d="M552.39,372.2v-0.87c2.02-0.25,2.27-0.56,1.83-1.74c-0.4-1.21-1.02-2.76-1.68-4.72h-6.7
			c-0.5,1.4-0.96,2.61-1.4,3.88c-0.68,2.02-0.25,2.27,2.3,2.58v0.87h-7.17v-0.87c1.96-0.25,2.45-0.47,3.54-3.26l6.42-16.29
			l0.99-0.19c1.96,5.31,4.1,11.17,6.05,16.54c0.99,2.7,1.27,2.95,3.48,3.2v0.87H552.39z M549.29,355.66
			c-0.99,2.67-2.05,5.49-2.98,7.95h5.8L549.29,355.66z"/>
		<path class="st5" d="M577.88,366.9c-0.22,1.06-0.96,3.97-1.27,5.31h-16.14l-0.28-0.5c4.31-5.96,8.63-12.13,13-18.44h-6.11
			c-2.76,0-3.23,0.19-3.88,1.15c-0.31,0.4-0.78,1.43-1.18,2.61l-0.93-0.03c0.16-1.61,0.53-4.31,0.59-5.68h0.81
			c0.34,0.75,0.71,0.71,1.65,0.71h12.54l0.25,0.5c-4.31,6.05-8.5,12.07-12.79,18.34c0.96,0.06,2.98,0.09,5.09,0.09
			c4.07,0,5-0.16,5.87-1.12c0.65-0.65,1.33-1.86,1.89-3.17L577.88,366.9z"/>
		<path class="st5" d="M596.87,366.9c-0.22,1.06-0.96,3.97-1.27,5.31h-16.14l-0.28-0.5c4.31-5.96,8.63-12.13,13-18.44h-6.11
			c-2.76,0-3.23,0.19-3.88,1.15c-0.31,0.4-0.78,1.43-1.18,2.61l-0.93-0.03c0.16-1.61,0.53-4.31,0.59-5.68h0.81
			c0.34,0.75,0.71,0.71,1.65,0.71h12.54l0.25,0.5c-4.31,6.05-8.5,12.07-12.79,18.34c0.96,0.06,2.98,0.09,5.09,0.09
			c4.07,0,5-0.16,5.87-1.12c0.65-0.65,1.33-1.86,1.89-3.17L596.87,366.9z"/>
		<path class="st5" d="M614.88,367.27c-0.19,0.81-1.02,4-1.33,4.93h-15.08v-0.87c2.89-0.22,3.1-0.5,3.1-3.04v-12.26
			c0-2.76-0.34-2.92-2.67-3.13v-0.87h9.5c2.92,0,4.13-0.03,4.5-0.06c0.03,0.78,0.16,3.1,0.28,4.75l-0.93,0.16
			c-0.28-1.06-0.59-1.71-0.93-2.36c-0.5-1.02-1.21-1.24-3.07-1.24h-2.95c-0.96,0-1.02,0.09-1.02,0.99v6.86h3.45
			c2.33,0,2.48-0.47,2.86-2.58h0.96v6.39h-0.96c-0.4-2.23-0.65-2.54-2.89-2.54h-3.41v6.18c0,2.17,0.68,2.36,2.24,2.39h2.89
			c1.89,0,2.2-0.28,2.89-1.09c0.59-0.65,1.24-1.92,1.68-2.85L614.88,367.27z"/>
		<path class="st5" d="M633.35,356.9c-0.28-0.99-0.65-2.02-0.99-2.58c-0.5-0.84-0.81-1.06-2.51-1.06h-3.1v15.12
			c0,2.42,0.25,2.76,3.2,2.95v0.87h-9.03v-0.87c2.89-0.19,3.13-0.5,3.13-2.95v-15.12h-2.82c-1.71,0-2.2,0.19-2.73,1.12
			c-0.37,0.62-0.62,1.37-1.02,2.51h-0.93c0.19-1.89,0.37-3.85,0.47-5.59h0.71c0.47,0.75,0.81,0.71,1.68,0.71h12.29
			c0.87,0,1.12-0.12,1.58-0.71H634c0,1.46,0.12,3.69,0.28,5.49L633.35,356.9z"/>
		<path class="st5" d="M647.03,372.2v-0.87c2.02-0.25,2.27-0.56,1.83-1.74c-0.4-1.21-1.02-2.76-1.68-4.72h-6.7
			c-0.5,1.4-0.96,2.61-1.4,3.88c-0.68,2.02-0.25,2.27,2.3,2.58v0.87h-7.17v-0.87c1.96-0.25,2.45-0.47,3.54-3.26l6.42-16.29
			l0.99-0.19c1.96,5.31,4.1,11.17,6.05,16.54c0.99,2.7,1.27,2.95,3.48,3.2v0.87H647.03z M643.93,355.66
			c-0.99,2.67-2.05,5.49-2.98,7.95h5.8L643.93,355.66z"/>
	</g>
</g>
</svg>
